<?xml version="1.0" standalone="no"?>
<svg version="1.0" xmlns="http://www.w3.org/2000/svg"
 width="144.000000pt" height="293.000000pt" viewBox="0 0 144.000000 293.000000"
 preserveAspectRatio="xMidYMid meet">

<g transform="translate(0.000000,293.000000) scale(0.100000,-0.100000)"
fill="#e50914" stroke="none">
<path d="M20 1465 l0 -1455 388 0 c401 0 508 8 617 45 147 50 260 145 318 267
68 141 72 169 72 498 0 278 -1 300 -23 375 -48 165 -123 267 -246 331 -31 16
-56 32 -56 35 0 3 18 16 40 28 96 54 177 165 214 292 40 141 46 433 11 589
-47 206 -158 339 -335 399 -119 40 -247 51 -637 51 l-363 0 0 -1455z m780
1021 c93 -48 120 -113 128 -305 10 -253 -22 -358 -129 -416 -51 -28 -62 -30
-191 -33 -129 -4 -138 -3 -139 14 -1 30 -1 748 0 758 1 5 67 6 149 4 116 -3
154 -8 182 -22z m21 -1188 c56 -25 106 -74 125 -126 15 -39 18 -89 22 -289 4
-298 -2 -337 -63 -398 -25 -25 -59 -48 -81 -54 -22 -6 -109 -11 -195 -11 -141
0 -157 2 -161 18 -3 12 -2 822 2 876 0 15 311 2 351 -16z"/>
</g>
</svg>